<svg width="390" height="111" viewBox="0 0 390 111" fill="none" xmlns="http://www.w3.org/2000/svg">
<path d="M7.22 1.25L7.2181 1.25C2.80937 1.26115 -0.75 4.86122 -0.75 9.29563V111V111.75H0H390H390.75V111V9.29563C390.75 4.8616 387.191 1.26009 382.78 1.26009H232.91C225.27 1.26009 220.116 8.75573 222.353 16.0444L222.516 16.5744H222.52C223.321 19.3705 223.713 22.3374 223.63 25.4106C223.231 40.2163 211.488 52.5274 196.853 53.451L196.9 54.1995L196.853 53.451C180.204 54.5029 166.37 41.1933 166.37 24.6033C166.37 21.5632 166.838 18.6416 167.696 15.8867C169.969 8.61475 164.428 1.25 156.89 1.25L7.22 1.25Z" fill="#131416" stroke="#353942" stroke-width="1.5"/>
</svg>
