<svg width="18" height="18" viewBox="0 0 18 18" fill="none" xmlns="http://www.w3.org/2000/svg">
<mask id="path-1-inside-1_2601_30766" fill="white">
<path fill-rule="evenodd" clip-rule="evenodd" d="M16.1422 0H1.85784C0.832522 0 0 0.832522 0 1.85784V16.1422C0 17.1675 0.832522 18 1.85784 18H16.1422C17.1675 18 18 17.1675 18 16.1422V1.85784C18 0.832522 17.1675 0 16.1422 0Z"/>
</mask>
<path d="M16.1422 -1H1.85784V1H16.1422V-1ZM1.85784 -1C0.280237 -1 -1 0.280237 -1 1.85784H1C1 1.38481 1.38481 1 1.85784 1V-1ZM-1 1.85784V16.1422H1V1.85784H-1ZM-1 16.1422C-1 17.7198 0.280237 19 1.85784 19V17C1.38481 17 1 16.6152 1 16.1422H-1ZM1.85784 19H16.1422V17H1.85784V19ZM16.1422 19C17.7198 19 19 17.7198 19 16.1422H17C17 16.6152 16.6152 17 16.1422 17V19ZM19 16.1422V1.85784H17V16.1422H19ZM19 1.85784C19 0.280237 17.7198 -1 16.1422 -1V1C16.6152 1 17 1.38481 17 1.85784H19Z" fill="#787C83" mask="url(#path-1-inside-1_2601_30766)"/>
<path d="M4.5 8.5425L7.72875 11.7712L13 6.5" stroke="#787C83" strokeWidth="1.8" strokeLinecap="round" strokeLinejoin="round"/>
</svg>
