<svg width="18" height="19" viewBox="0 0 18 19" fill="none" xmlns="http://www.w3.org/2000/svg">
<g id="phone">
<path id="Vector" d="M16.4981 13.1901V15.4401C16.499 15.6489 16.4562 15.8557 16.3725 16.0471C16.2888 16.2385 16.1661 16.4103 16.0122 16.5515C15.8583 16.6927 15.6765 16.8002 15.4787 16.8671C15.2808 16.934 15.0711 16.9589 14.8631 16.9401C12.5552 16.6893 10.3384 15.9007 8.39062 14.6376C6.57849 13.4861 5.04212 11.9497 3.89062 10.1376C2.6231 8.18098 1.8343 5.95332 1.58812 3.63507C1.56938 3.42767 1.59402 3.21864 1.66049 3.02129C1.72696 2.82394 1.8338 2.64259 1.97419 2.48879C2.11459 2.33499 2.28547 2.2121 2.47596 2.12796C2.66645 2.04382 2.87237 2.00027 3.08062 2.00007H5.33062C5.6946 1.99649 6.04746 2.12538 6.32344 2.36272C6.59942 2.60006 6.77968 2.92966 6.83062 3.29007C6.92559 4.01012 7.10171 4.71712 7.35562 5.39757C7.45653 5.66602 7.47837 5.95776 7.41855 6.23823C7.35873 6.51871 7.21977 6.77616 7.01812 6.98007L6.06562 7.93257C7.13329 9.81023 8.68796 11.3649 10.5656 12.4326L11.5181 11.4801C11.722 11.2784 11.9795 11.1395 12.26 11.0796C12.5404 11.0198 12.8322 11.0417 13.1006 11.1426C13.7811 11.3965 14.4881 11.5726 15.2081 11.6676C15.5724 11.719 15.9052 11.9025 16.143 12.1832C16.3809 12.4639 16.5072 12.8223 16.4981 13.1901Z" stroke="#787C83" stroke-linecap="round" stroke-linejoin="round"/>
</g>
</svg>
